<svg xmlns="http://www.w3.org/2000/svg" fill="none" viewBox="0 0 87 35"><defs/><path fill="#E40000" d="M25.443 10.64c.594-.216 1.08-.513 1.566-.81l.136-.081a10.4 10.4 0 001.458-1.107c1.08-.946 1.755-1.89 2.133-3.025.162-.46.378-1.377.108-2.215a2.823 2.823 0 00-1.107-1.512c-.054-.054-.729-.594-2.025-.594-1.162 0-2.458.459-3.835 1.35l-.054.027c-.027.027-.081.054-.135.081a.374.374 0 01-.108.081c-.27.19-.54.405-.783.621-.568.568-1.243 1.486-1.189 2.269.027.324.162.621.405.81.243.19.513.27.865.27.702 0 1.458-.378 1.998-.702.027-.027.054-.054.108-.054.081-.054.19-.108.27-.189l.081-.054c.756-.486 1.512-1.026 2.377-1.323.216-.081.432-.108.594-.108.08 0 .189 0 .27.027a.76.76 0 01.567.459c.19.405.162 1.053-.108 1.647-.378.81-1.026 1.593-1.917 2.35-.46.378-.865.675-1.243.89l-.027.028a2.191 2.191 0 01-.567.27h-.027c-.054.027-.108.054-.162.054-.864.243-.351-.54-.351-.54.19-.216.378-.405.594-.594.108-.108.243-.216.351-.351l.027-.027c.162-.162.351-.351.351-.649-.027-.405-.432-.648-.81-.648h-.027c-.351 0-.702.216-.945.405-.216.19-.46.46-.621.703-.243.378-.73 1.296-.243 2.052.189.297.513.46.945.46.324-.055.675-.109 1.08-.27zM42.376 0c-.702 0-1.242.567-1.242 1.242 0 .702.54 1.243 1.242 1.243.703 0 1.243-.54 1.243-1.243 0-.324-.108-.648-.352-.864a1.27 1.27 0 00-.89-.378zM41.377 10.857h1.944v-7.75l-1.944.324v7.426zM37.137 2.97c-.918 0-1.755.27-2.62.703l-.216.108.514 1.161.297-.135c.594-.27 1.242-.459 1.836-.432.702.027 1 .351 1 1.026v.405h-1.162c-1.864 0-2.998.973-3.025 2.512 0 1.458 1.215 2.7 2.89 2.7 1.35 0 2.511-.432 3.268-1.215V5.671c0-2.025-1.432-2.7-2.782-2.7zm.81 6.428c-.189.135-.594.243-.999.243-.783 0-1.134-.594-1.134-1.296.027-.567.378-1.242 1.35-1.242h.783v2.295zM57.635 9.641c-.54 0-.891-.162-1.134-.432-.351-.378-.514-1.161-.46-1.971h4.186v-.19c-.027-2.754-.972-3.996-3.024-3.996-2.296 0-3.187 2.106-3.187 4.078-.027 1.242.46 2.511 1.323 3.214.513.432 1.243.675 2.107.675.459 0 .945-.054 1.377-.216.837-.27 1.458-.703 1.458-.703l-.54-1.134a3.734 3.734 0 01-2.106.675zm-.405-5.158c.864 0 .999.945.999 1.512h-2.106c.027-.756.324-1.512 1.107-1.512zM44.888 4.51v6.373h1.971V4.888c.27-.244.81-.487 1.324-.487.486-.027.81.081.81.081l.54-1.242c-.216-.108-.73-.243-1.323-.243-.837 0-2.16.243-3.322 1.512zM64.36 9.64c-.81-.053-.973-.404-.973-.999V.971l-1.944.325v7.21c0 1.702.918 2.431 2.484 2.431.324 0 .756-.081.756-.081V9.641h-.324zM52.045.972l-1.999.324v7.237c0 1.62.945 2.377 2.539 2.377.378 0 .729-.081.729-.081V9.614h-.27c-.837-.027-1-.486-1-1.027V4.51h1.297V3.078h-1.296V.972z"/><path fill="#F7F8F9" d="M29.275 32.408h-8.966V18.175c0-.702-.567-1.269-1.27-1.269-.702 0-1.269.567-1.269 1.27v15.528c0 .702.567 1.27 1.27 1.27h10.235c.702 0 1.27-.568 1.27-1.27 0-.702-.568-1.296-1.27-1.296zM12.342 25.549c1.107-1.054 1.728-2.458 1.728-3.808 0-1.35-.594-2.593-1.647-3.457-1.08-.891-2.62-1.35-4.43-1.35H1.459c-.81 0-1.458.648-1.458 1.458v15.15c0 .81.648 1.459 1.458 1.459h6.833c1.89 0 3.51-.54 4.672-1.54 1.107-.945 1.756-2.322 1.756-3.726 0-1.567-.81-3.16-2.377-4.186zM2.917 19.85h5.077c1.944 0 3.16.73 3.16 1.89 0 .595-.325 1.243-.865 1.73-.486.431-1.35.944-2.781.944H2.944V19.85h-.027zm8.129 11.397c-.649.54-1.594.837-2.782.837H2.917v-4.753H8.1c2.54 0 3.674 1.242 3.674 2.404.027.567-.243 1.107-.73 1.512zM42.94 17.555a1.11 1.11 0 00-1-.621c-.431 0-.81.243-.998.62l-7.59 15.637c-.27.54-.026 1.216.514 1.486s1.215.027 1.485-.513l2.107-4.321h8.993l2.106 4.32c.19.406.595.622 1 .622.162 0 .324-.027.486-.108.54-.27.783-.918.513-1.486L42.94 17.555zm2.43 10.073h-6.859l3.43-7.049 3.43 7.05zM85.826 33.488l-8.156-9.29 7.13-5.887a.732.732 0 00.108-1.027.732.732 0 00-1.026-.108L72.89 26.278v-8.561a.726.726 0 00-.729-.73.726.726 0 00-.73.73v16.311c0 .405.325.73.73.73.405 0 .73-.325.73-.73v-5.86l3.672-3.025 8.183 9.317a.72.72 0 00.54.243.694.694 0 00.486-.189.749.749 0 00.054-1.026zM60.521 18.905c2.16 0 4.132.918 5.834 2.727.35.378.918.378 1.296.054.378-.35.378-.918.054-1.296-2.053-2.187-4.456-3.322-7.157-3.322-3.592 0-8.939 2.35-8.939 8.804 0 6.158 4.51 8.913 8.966 8.913 3.592 0 5.86-2.134 7.13-3.916.297-.405.189-.973-.216-1.27-.405-.297-.972-.189-1.27.216-1.026 1.432-2.835 3.133-5.644 3.133-3.294 0-7.156-1.863-7.156-7.076 0-5.104 4.24-6.967 7.102-6.967z"/><path fill="#FAFAFA" d="M29.275 32.408h-8.966V18.175c0-.702-.567-1.269-1.27-1.269-.702 0-1.269.567-1.269 1.27v15.528c0 .702.567 1.27 1.27 1.27h10.235c.702 0 1.27-.568 1.27-1.27 0-.702-.568-1.296-1.27-1.296zM12.342 25.549c1.107-1.054 1.728-2.458 1.728-3.808 0-1.35-.594-2.593-1.647-3.457-1.08-.891-2.62-1.35-4.43-1.35H1.459c-.81 0-1.458.648-1.458 1.458v15.15c0 .81.648 1.459 1.458 1.459h6.833c1.89 0 3.51-.54 4.672-1.54 1.107-.945 1.756-2.322 1.756-3.726 0-1.567-.81-3.16-2.377-4.186zM2.917 19.85h5.077c1.944 0 3.16.73 3.16 1.89 0 .595-.325 1.243-.865 1.73-.486.431-1.35.944-2.781.944H2.944V19.85h-.027zm8.129 11.397c-.649.54-1.594.837-2.782.837H2.917v-4.753H8.1c2.54 0 3.674 1.242 3.674 2.404.027.567-.243 1.107-.73 1.512zM42.94 17.555a1.11 1.11 0 00-1-.621c-.431 0-.81.243-.998.62l-7.59 15.637c-.27.54-.026 1.216.514 1.486s1.215.027 1.485-.513l2.107-4.321h8.993l2.106 4.32c.19.406.595.622 1 .622.162 0 .324-.027.486-.108.54-.27.783-.918.513-1.486L42.94 17.555zm2.43 10.073h-6.859l3.43-7.049 3.43 7.05zM85.826 33.488l-8.156-9.29 7.13-5.887a.732.732 0 00.108-1.027.732.732 0 00-1.026-.108L72.89 26.278v-8.561a.726.726 0 00-.729-.73.726.726 0 00-.73.73v16.311c0 .405.325.73.73.73.405 0 .73-.325.73-.73v-5.86l3.672-3.025 8.183 9.317a.72.72 0 00.54.243.694.694 0 00.486-.189.749.749 0 00.054-1.026zM60.521 18.905c2.16 0 4.132.918 5.834 2.727.35.378.918.378 1.296.054.378-.35.378-.918.054-1.296-2.053-2.187-4.456-3.322-7.157-3.322-3.592 0-8.939 2.35-8.939 8.804 0 6.158 4.51 8.913 8.966 8.913 3.592 0 5.86-2.134 7.13-3.916.297-.405.189-.973-.216-1.27-.405-.297-.972-.189-1.27.216-1.026 1.432-2.835 3.133-5.644 3.133-3.294 0-7.156-1.863-7.156-7.076 0-5.104 4.24-6.967 7.102-6.967z"/></svg>