<svg xmlns="http://www.w3.org/2000/svg" fill="none" viewBox="0 0 28 28"><defs/><g clip-path="url(#clip0)"><path fill="#292C31" fill-rule="evenodd" d="M2.334 17.733a2.2 2.2 0 012.2-2.2h12.967v-2.7a.8.8 0 011.6 0v2.7h3.633a2.2 2.2 0 012.2 2.2v4.2a2.2 2.2 0 01-2.2 2.2h-18.2a2.2 2.2 0 01-2.2-2.2v-4.2zm2.2-.6a.6.6 0 00-.6.6v4.2a.6.6 0 00.6.6h18.2a.6.6 0 00.6-.6v-4.2a.6.6 0 00-.6-.6h-18.2zM10.34 21a1.167 1.167 0 100-2.334 1.167 1.167 0 000 2.334zm3.706 0a1.167 1.167 0 100-2.333 1.167 1.167 0 000 2.333zM7.8 19.833a1.167 1.167 0 11-2.334 0 1.167 1.167 0 012.334 0zM18.3 6.267c-1.464 0-2.914.637-4.091 1.856a.8.8 0 11-1.151-1.111c1.443-1.495 3.295-2.345 5.242-2.345 1.946 0 3.799.85 5.242 2.345a.8.8 0 11-1.151 1.111c-1.177-1.22-2.627-1.856-4.091-1.856zm-1.791 4.65c.541-.488 1.16-.727 1.767-.727.608 0 1.226.239 1.768.727a.8.8 0 101.072-1.188c-.805-.725-1.796-1.139-2.84-1.139-1.043 0-2.035.414-2.839 1.14a.8.8 0 101.072 1.187z" clip-rule="evenodd"/></g><defs><clipPath id="clip0"><path fill="#fff" d="M0 0h28v28H0z"/></clipPath></defs></svg>