<svg xmlns="http://www.w3.org/2000/svg" fill="none" viewBox="0 0 28 28"><defs/><path stroke="#292C31" stroke-miterlimit="10" stroke-width="1.5" d="M19.622 15.716c1.298.001 2.543-.52 3.462-1.445a4.965 4.965 0 001.435-3.494c0-1.31-.515-2.568-1.432-3.495a4.872 4.872 0 00-3.461-1.449l-10.693.028a4.856 4.856 0 00-3.138 1.142 4.94 4.94 0 00-1.68 2.909c-.525 2.921-1.169 6.075-1.747 9.08-.085.492-.013 1 .206 1.449.22.449.574.816 1.013 1.048a2.323 2.323 0 002.73-.408l4.591-5.124a.638.638 0 01.471-.213l8.243-.028z"/><path fill="#292C31" d="M23.669 9.897a.75.75 0 111.487-.197l-1.487.197zm1.963 9.098l-.74.127-.002-.014-.002-.015.744-.098zm-3.949 2.09l-.528.532-.015-.015-.015-.017.558-.5zm-5.15-4.624a.75.75 0 011.117-1.001l-1.117 1zM25.156 9.7l1.22 9.196-1.488.197-1.219-9.196 1.487-.197zm1.215 9.168a3.133 3.133 0 01-.272 1.905l-1.348-.658c.15-.307.2-.655.142-.993l1.478-.255zm-.272 1.905a3.103 3.103 0 01-1.336 1.383l-.701-1.326c.297-.158.54-.408.69-.715l1.347.658zm-1.336 1.383c-.58.307-1.243.42-1.892.323l.222-1.483c.332.05.67-.008.969-.166l.701 1.326zm-1.892.323c-.649-.097-1.25-.4-1.716-.862l1.057-1.065c.24.24.55.394.881.444l-.222 1.483zm-1.746-.894l-4.592-5.124 1.117-1.001 4.592 5.124-1.117 1.001z"/><path stroke="#292C31" stroke-linecap="round" stroke-linejoin="round" stroke-width="1.2" d="M12.157 11.144H8.97M10.564 12.736V9.55M19.59 11.144h-2.654"/></svg>