<svg xmlns="http://www.w3.org/2000/svg" fill="none" viewBox="0 0 28 28"><defs/><path stroke="#292C31" stroke-linecap="round" stroke-linejoin="round" stroke-width="1.6" d="M25.651 10.825a.634.634 0 00-.06-.438 5.011 5.011 0 00-1.288-1.468c-2.637-1.492-5.376.739-6.763 1.545l-.973.56-5.934-2.79-.01-.004a.565.565 0 00-.51-.005l-3.382 1.95a.566.566 0 00-.024.967l4.526 2.853-3.597 2.725-4.806-.398a.568.568 0 00-.474.72c.03.104.09.198.174.27l3.491 2.562.01.01a2.828 2.828 0 003.346.415l15.985-9.135.01-.006a.564.564 0 00.28-.333z" clip-rule="evenodd"/></svg>