<svg xmlns="http://www.w3.org/2000/svg" fill="none" viewBox="0 0 28 29"><defs/><path stroke="#292C31" stroke-width="1.6" d="M20.562 20.896c-3.402 0-5.104-1.22-5.104-3.66a1.83 1.83 0 00-.102-.309.499.499 0 00-.171-.206 9.906 9.906 0 00-.183-.125.602.602 0 00-.239-.07 2.177 2.177 0 00-.228-.022h-1.082l-.228.023-.228.069-.182.125-.17.206-.103.31c0 2.44-1.702 3.66-5.105 3.66-3.402 0-5.104-1.22-5.104-3.66v-2.89c0-.41.14-.758.422-1.04a1.407 1.407 0 011.037-.423h20.416c.41 0 .756.14 1.037.423.281.282.422.63.422 1.04v2.89c0 2.44-1.702 3.66-5.105 3.66z"/><path stroke="#292C31" stroke-linecap="round" stroke-width="1.6" d="M9.333 8.094c-.265.078-.539-1.186-.815-1.058-2.152.997-4.501 3.423-5.018 5.848M18.667 8.064c.293.086.595-1.172.9-1.025 2.129 1.028 4.423 3.436 4.933 5.845"/></svg>