<svg viewBox="0 0 25 25" fill="none" xmlns="http://www.w3.org/2000/svg">
<path d="M12.9982 21.0032C12.9982 21.0032 20.1993 17.4026 20.1993 12.0018V5.70089L12.9982 3.00049L5.79712 5.70089V12.0018C5.79712 17.4026 12.9982 21.0032 12.9982 21.0032Z" stroke="black" stroke-width="1.50023" stroke-linecap="round" stroke-linejoin="round"/>
<path d="M12.998 14.5645H13.0042" stroke="black" stroke-width="1.50023" stroke-linecap="round" stroke-linejoin="round"/>
<path d="M11.123 12.6895C11.6204 12.1924 12.2948 11.9131 12.998 11.9131C13.7012 11.9131 14.3756 12.1924 14.8729 12.6895" stroke="black" stroke-width="1.50023" stroke-linecap="round" stroke-linejoin="round"/>
<path d="M9.24756 10.814C9.74008 10.3214 10.3248 9.93071 10.9683 9.66414C11.6118 9.39758 12.3016 9.26038 12.9981 9.26038C13.6947 9.26038 14.3844 9.39758 15.0279 9.66414C15.6714 9.93071 16.2562 10.3214 16.7487 10.814" stroke="black" stroke-width="1.50023" stroke-linecap="round" stroke-linejoin="round"/>
</svg>
