<svg xmlns="http://www.w3.org/2000/svg" fill="none" viewBox="0 0 28 28"><defs/><path stroke="#292C31" stroke-linecap="round" stroke-linejoin="round" stroke-width="1.6" d="M23.333 17.5h-4.666c-.645 0-1.167.522-1.167 1.167v4.666c0 .645.522 1.167 1.167 1.167h4.666c.645 0 1.167-.522 1.167-1.167v-4.666c0-.645-.522-1.167-1.167-1.167zM24.5 12.833v-3.5A2.334 2.334 0 0022.167 7h-7m0 0l3.5 3.5m-3.5-3.5l3.5-3.5M3.5 15.166v3.5A2.333 2.333 0 005.833 21h7m0 0l-3.5-3.5m3.5 3.5l-3.5 3.5"/><path fill="#292C31" d="M6.208 11.294c.577-.204 1.094-.523 1.612-.842a11.16 11.16 0 001.405-1.035c1.314-1.125 2.726-3.084 2.137-4.936C10.948 3.172 9.66 2.5 8.352 2.5c-1.703 0-3.417.91-4.693 2.007-.644.61-1.772 2.133-.744 2.903.82.607 1.983.053 2.737-.4.856-.585 1.742-1.191 2.728-1.526.468-.17 1.125-.182 1.376.338.193.385.147.992-.116 1.548-.358.757-.973 1.502-1.828 2.217-.575.495-1.24.94-1.963 1.183-.836.219-.327-.502-.327-.502.291-.328.63-.61.944-.917.145-.143.345-.338.333-.62-.017-.38-.425-.614-.792-.614-.622 0-1.177.544-1.496 1.032-.222.345-.69 1.225-.234 1.928.31.479.984.551 1.931.217z"/></svg>