<svg xmlns="http://www.w3.org/2000/svg" fill="none" viewBox="0 0 90 36"><defs/><path fill="#E40001" d="M41.709 27.178c-1.7 0-3.091-.352-4.175-1.058-.3-.185-.516-.378-.65-.58a1.333 1.333 0 01-.174-.68c0-.269.075-.496.225-.68a.708.708 0 01.575-.278c.216 0 .558.135 1.024.403.5.27.983.488 1.45.656.483.168 1.083.252 1.8.252.8 0 1.424-.143 1.874-.429.45-.285.675-.688.675-1.21 0-.335-.091-.604-.275-.806-.166-.201-.466-.378-.9-.529-.433-.168-1.074-.344-1.924-.53-1.467-.318-2.525-.747-3.175-1.284-.633-.555-.95-1.302-.95-2.243 0-.723.209-1.37.625-1.94.417-.589.992-1.042 1.725-1.361.733-.32 1.566-.48 2.5-.48.666 0 1.316.093 1.95.278.632.168 1.19.42 1.674.756.55.37.825.798.825 1.285a.98.98 0 01-.25.68.684.684 0 01-.55.278c-.15 0-.3-.034-.45-.1a5.923 5.923 0 01-.6-.328 8.087 8.087 0 00-1.275-.63c-.383-.152-.866-.227-1.45-.227-.7 0-1.266.15-1.699.453a1.446 1.446 0 00-.625 1.235c0 .47.192.84.575 1.109.4.252 1.141.495 2.225.73 1.116.236 1.99.505 2.624.807.633.302 1.083.68 1.35 1.134.283.437.425 1 .425 1.688 0 1.093-.459 1.974-1.375 2.646-.9.656-2.108.983-3.624.983zM56.116 14.402c2.9 0 4.35 1.655 4.35 4.964v6.552c0 .37-.117.664-.35.882-.234.219-.542.328-.925.328-.384 0-.692-.11-.925-.328-.217-.218-.325-.512-.325-.882v-6.526c0-1.008-.208-1.748-.625-2.218-.4-.47-1.033-.706-1.9-.706-1.016 0-1.832.32-2.45.958-.616.638-.924 1.495-.924 2.57v5.922c0 .37-.117.664-.35.882-.216.219-.516.328-.9.328-.383 0-.691-.11-.924-.328-.234-.218-.35-.512-.35-.882V10.32c0-.37.116-.664.35-.883.25-.218.566-.327.95-.327.366 0 .658.11.874.327.233.202.35.48.35.832v6.3a4.19 4.19 0 011.675-1.613c.7-.37 1.5-.554 2.4-.554zM69.218 27.178c-1.2 0-2.258-.26-3.174-.78-.9-.522-1.6-1.26-2.1-2.218-.483-.975-.725-2.1-.725-3.377 0-1.294.242-2.42.725-3.377.5-.974 1.2-1.722 2.1-2.243.916-.52 1.974-.781 3.174-.781s2.25.26 3.15.781a5.14 5.14 0 012.099 2.243c.5.958.75 2.083.75 3.377 0 1.276-.25 2.402-.75 3.377a5.17 5.17 0 01-2.1 2.217c-.9.52-1.95.781-3.15.781zm0-2.016c1.116 0 1.966-.37 2.55-1.108.6-.74.9-1.823.9-3.251 0-1.412-.3-2.487-.9-3.226-.6-.756-1.45-1.134-2.55-1.134-1.1 0-1.95.378-2.55 1.134-.6.74-.9 1.814-.9 3.226 0 1.428.292 2.511.875 3.25.6.74 1.459 1.11 2.575 1.11zM84.576 14.402c1.05 0 1.983.269 2.8.806.833.538 1.474 1.294 1.924 2.268.467.975.7 2.1.7 3.377 0 1.26-.225 2.369-.675 3.326-.45.958-1.091 1.697-1.925 2.218-.816.52-1.757.781-2.824.781-.916 0-1.724-.193-2.424-.58a3.962 3.962 0 01-1.6-1.713v5.62c0 .353-.117.63-.35.831-.217.219-.508.328-.875.328-.383 0-.7-.11-.95-.328-.233-.218-.35-.512-.35-.882V15.687c0-.37.117-.663.35-.882.234-.235.542-.353.925-.353.367 0 .667.118.9.353.233.219.35.513.35.882v1.033c.366-.739.9-1.31 1.6-1.713.7-.403 1.508-.605 2.424-.605zm-.6 10.76c1.1 0 1.95-.37 2.55-1.108.6-.756.9-1.823.9-3.2 0-1.395-.309-2.479-.925-3.252-.6-.773-1.442-1.159-2.525-1.159-1.1 0-1.95.378-2.55 1.134-.582.756-.874 1.831-.874 3.226 0 1.394.291 2.47.875 3.225.6.756 1.45 1.134 2.55 1.134zM6.25 9l2.901-3.6H26.56l2.9 3.6H6.25z"/><path fill="#E40001" fill-rule="evenodd" d="M6.25 27V10.8h23.21V27c0 1.99-1.599 3.6-3.57 3.6H9.82c-1.971 0-3.57-1.61-3.57-3.6zM12.5 15.3c0-.496-.4-.9-.893-.9a.896.896 0 00-.893.9c0 3.977 3.198 7.2 7.142 7.2 3.944 0 7.141-3.223 7.141-7.2 0-.496-.4-.9-.893-.9a.896.896 0 00-.892.9c0 2.983-2.398 5.4-5.356 5.4-2.958 0-5.356-2.417-5.356-5.4z" clip-rule="evenodd"/></svg>