<svg xmlns="http://www.w3.org/2000/svg" fill="none" viewBox="0 0 28 28"><defs/><path stroke="#292C31" stroke-linecap="round" stroke-linejoin="round" stroke-width="1.6" d="M16.497 4.667H8.872c-1.104 0-2 .783-2 1.75v15.166c0 .967.896 1.75 2 1.75h10c1.105 0 2-.783 2-1.75V8.62a1 1 0 00-.341-.752l-3.376-2.954a1 1 0 00-.658-.247z"/><path stroke="#292C31" stroke-linecap="round" stroke-linejoin="round" stroke-width="1.6" d="M16.206 14.291h-4.667c-1.167 0-1.167.584-1.167 1.07v3.403c0 .486 0 1.07 1.167 1.07h4.667c1.166 0 1.166-.584 1.166-1.07V15.36c0-.486 0-1.07-1.166-1.07zM13.93 15.225V18.9"/><path stroke="#292C31" stroke-linecap="round" stroke-linejoin="round" stroke-width="1.2" d="M21 3.5h4.667M23.333 1.167v4.666"/></svg>